<svg id="Layer_2" data-name="Layer 2" xmlns="http://www.w3.org/2000/svg" viewBox="0 0 1080 1080"><defs><style>.cls-1{fill:#ee4036;}</style></defs><rect class="cls-1" x="34.11" y="5.84" width="427.33" height="1068.32"/><path class="cls-1" d="M661.2,5.84h384.68a0,0,0,0,1,0,0V368.51A121.41,121.41,0,0,1,924.47,489.92H561.8a0,0,0,0,1,0,0V105.24a99.4,99.4,0,0,1,99.4-99.4Z"/><path class="cls-1" d="M561.8,590.08H924.47a121.41,121.41,0,0,1,121.41,121.41v362.67a0,0,0,0,1,0,0H661.2a99.4,99.4,0,0,1-99.4-99.4V590.08A0,0,0,0,1,561.8,590.08Z" transform="translate(1607.69 1664.24) rotate(-180)"/></svg>